<svg width="236" height="236" viewBox="0 0 236 236" fill="none" xmlns="http://www.w3.org/2000/svg">
<path d="M2.06111 2.05515H233.935V233.929H2.06111V2.05515Z" fill="white" style="fill:white;fill-opacity:1;"/>
<path d="M-0.00158691 -0.00610352H7.21238V7.20786H-0.00158691V-0.00610352Z" fill="#ADADAD" style="fill:#ADADAD;fill:color(display-p3 0.6784 0.6784 0.6784);fill-opacity:1;"/>
<path d="M-0.00158691 7.20786L3.09006 7.2078V228.776H-0.00158691L-0.00158691 7.20786Z" fill="#ADADAD" style="fill:#ADADAD;fill:color(display-p3 0.6784 0.6784 0.6784);fill-opacity:1;"/>
<path d="M-0.00158691 228.776L7.21238 228.776V235.99H-0.00158691L-0.00158691 228.776Z" fill="#ADADAD" style="fill:#ADADAD;fill:color(display-p3 0.6784 0.6784 0.6784);fill-opacity:1;"/>
<path d="M7.21196 232.898H228.78V235.99L7.21238 235.99L7.21196 232.898Z" fill="#ADADAD" style="fill:#ADADAD;fill:color(display-p3 0.6784 0.6784 0.6784);fill-opacity:1;"/>
<path d="M228.781 228.776H235.995V235.99L228.78 235.99L228.781 228.776Z" fill="#ADADAD" style="fill:#ADADAD;fill:color(display-p3 0.6784 0.6784 0.6784);fill-opacity:1;"/>
<path d="M228.781 -0.00610352H235.995V7.20786H228.781V-0.00610352Z" fill="#ADADAD" style="fill:#ADADAD;fill:color(display-p3 0.6784 0.6784 0.6784);fill-opacity:1;"/>
<path d="M7.21238 -0.00610352H228.781L228.78 3.08555H7.21208L7.21238 -0.00610352Z" fill="#ADADAD" style="fill:#ADADAD;fill:color(display-p3 0.6784 0.6784 0.6784);fill-opacity:1;"/>
<path d="M7.21238 7.20786H228.781L228.78 12.3605H7.21208L7.21238 7.20786Z" fill="#E7E7E7" style="fill:#E7E7E7;fill:color(display-p3 0.9059 0.9059 0.9059);fill-opacity:1;"/>
<path d="M7.21196 17.5133H228.78V22.666H7.21196V17.5133Z" fill="#E7E7E7" style="fill:#E7E7E7;fill:color(display-p3 0.9059 0.9059 0.9059);fill-opacity:1;"/>
<path d="M7.21196 26.7883H228.78V31.941H7.21196V26.7883Z" fill="#E7E7E7" style="fill:#E7E7E7;fill:color(display-p3 0.9059 0.9059 0.9059);fill-opacity:1;"/>
<path d="M3.09048 37.0937H233.934V42.2464H3.09048V37.0937Z" fill="#E7E7E7" style="fill:#E7E7E7;fill:color(display-p3 0.9059 0.9059 0.9059);fill-opacity:1;"/>
<path d="M3.09048 46.3687H233.934V51.5214H3.09048V46.3687Z" fill="#E7E7E7" style="fill:#E7E7E7;fill:color(display-p3 0.9059 0.9059 0.9059);fill-opacity:1;"/>
<path d="M3.09048 46.3687H233.934V51.5214H3.09048V46.3687Z" fill="#E7E7E7" style="fill:#E7E7E7;fill:color(display-p3 0.9059 0.9059 0.9059);fill-opacity:1;"/>
<path d="M3.09048 46.3687H233.934V51.5214H3.09048V46.3687Z" fill="#E7E7E7" style="fill:#E7E7E7;fill:color(display-p3 0.9059 0.9059 0.9059);fill-opacity:1;"/>
<path d="M3.09048 56.674H233.934V61.8268H3.09048V56.674Z" fill="#E7E7E7" style="fill:#E7E7E7;fill:color(display-p3 0.9059 0.9059 0.9059);fill-opacity:1;"/>
<path d="M3.09048 66.9797H233.934V71.1019H3.09048V66.9797Z" fill="#E7E7E7" style="fill:#E7E7E7;fill:color(display-p3 0.9059 0.9059 0.9059);fill-opacity:1;"/>
<path d="M3.09048 76.2547H233.934V81.4074H3.09048V76.2547Z" fill="#E7E7E7" style="fill:#E7E7E7;fill:color(display-p3 0.9059 0.9059 0.9059);fill-opacity:1;"/>
<path d="M3.09048 86.56H233.934V90.6822H3.09048V86.56Z" fill="#E7E7E7" style="fill:#E7E7E7;fill:color(display-p3 0.9059 0.9059 0.9059);fill-opacity:1;"/>
<path d="M3.09048 95.835H233.934V100.988H3.09048V95.835Z" fill="#E7E7E7" style="fill:#E7E7E7;fill:color(display-p3 0.9059 0.9059 0.9059);fill-opacity:1;"/>
<path d="M3.09048 115.415H233.934V120.568H3.09048V115.415Z" fill="#E7E7E7" style="fill:#E7E7E7;fill:color(display-p3 0.9059 0.9059 0.9059);fill-opacity:1;"/>
<path d="M3.09048 125.721H233.934V130.874H3.09048V125.721Z" fill="#E7E7E7" style="fill:#E7E7E7;fill:color(display-p3 0.9059 0.9059 0.9059);fill-opacity:1;"/>
<path d="M3.09048 134.996H233.934V140.149H3.09048V134.996Z" fill="#E7E7E7" style="fill:#E7E7E7;fill:color(display-p3 0.9059 0.9059 0.9059);fill-opacity:1;"/>
<path d="M3.09048 145.301H233.934V150.454H3.09048V145.301Z" fill="#E7E7E7" style="fill:#E7E7E7;fill:color(display-p3 0.9059 0.9059 0.9059);fill-opacity:1;"/>
<path d="M3.09048 154.576H233.934V159.729H3.09048V154.576Z" fill="#E7E7E7" style="fill:#E7E7E7;fill:color(display-p3 0.9059 0.9059 0.9059);fill-opacity:1;"/>
<path d="M3.09048 164.882H233.934V170.035H3.09048V164.882Z" fill="#E7E7E7" style="fill:#E7E7E7;fill:color(display-p3 0.9059 0.9059 0.9059);fill-opacity:1;"/>
<path d="M3.09048 174.157H233.934V179.31H3.09048V174.157Z" fill="#E7E7E7" style="fill:#E7E7E7;fill:color(display-p3 0.9059 0.9059 0.9059);fill-opacity:1;"/>
<path d="M3.09048 184.462H233.934V189.615H3.09048V184.462Z" fill="#E7E7E7" style="fill:#E7E7E7;fill:color(display-p3 0.9059 0.9059 0.9059);fill-opacity:1;"/>
<path d="M3.09048 204.043H233.934V209.196H3.09048V204.043Z" fill="#E7E7E7" style="fill:#E7E7E7;fill:color(display-p3 0.9059 0.9059 0.9059);fill-opacity:1;"/>
<path d="M3.09048 214.348H233.934V218.47H3.09048V214.348Z" fill="#E7E7E7" style="fill:#E7E7E7;fill:color(display-p3 0.9059 0.9059 0.9059);fill-opacity:1;"/>
<path d="M3.09048 223.623H233.934V228.776L3.09006 228.776L3.09048 223.623Z" fill="#E7E7E7" style="fill:#E7E7E7;fill:color(display-p3 0.9059 0.9059 0.9059);fill-opacity:1;"/>
<path d="M3.09048 194.768H233.934V198.89H3.09048V194.768Z" fill="#E7E7E7" style="fill:#E7E7E7;fill:color(display-p3 0.9059 0.9059 0.9059);fill-opacity:1;"/>
<path d="M3.09048 106.14H233.934V110.263H3.09048V106.14Z" fill="#E7E7E7" style="fill:#E7E7E7;fill:color(display-p3 0.9059 0.9059 0.9059);fill-opacity:1;"/>
<path d="M232.902 7.20768L235.995 7.20786V228.776L232.902 228.776V7.20768Z" fill="#ADADAD" style="fill:#ADADAD;fill:color(display-p3 0.6784 0.6784 0.6784);fill-opacity:1;"/>
</svg>
