<svg width="16" height="16" viewBox="0 0 16 16" fill="none" xmlns="http://www.w3.org/2000/svg">
<path fill-rule="evenodd" clip-rule="evenodd" d="M3 3H13V13H3.71429V12.2857H5.14286V9.42857H11.5714V12.2857H12.2857V5.14286H11.5714V8H10.8571V3.71429H5.14286V8H4.42857V3.71429H3.71429V12.2857H3V3ZM9.42857 10.1429V12.2857H10.8571V10.1429H9.42857ZM12.2857 4.42857H11.5714V3.71429H12.2857V4.42857Z" fill="black"/>
<path d="M5.14307 8H10.8574V8.71429H5.14307V8Z" fill="black"/>
<path d="M5.14307 3.71423H10.8574V7.99995H5.14307V3.71423Z" fill="#C0C0C0"/>
<path d="M9.42847 10.1429H10.857V12.2857H9.42847V10.1429Z" fill="#C0C0C0"/>
<path d="M12.2858 3.71423H11.5715V4.42852H12.2858V3.71423Z" fill="#C0C0C0"/>
<path d="M3.71436 3.71423H4.42864V7.99995H5.14293V8.71423H10.8572V7.99995H11.5715V5.1428H12.2858V12.2857H11.5715V9.42852H5.14293V12.2857H3.71436V3.71423Z" fill="#808000"/>
</svg>
